<svg xmlns="http://www.w3.org/2000/svg" width="1200" height="860" viewBox="0 0 1200 860" role="img" aria-labelledby="title desc">
  <title id="title">SkinShelf Sprint 1 Technical Architecture</title>
  <desc id="desc">React Native Expo mobile architecture with navigation, screens, context state, service layer, Open Beauty Facts product lookup, planned backend, database, and Gemini AI integrations.</desc>
  <rect width="1200" height="860" fill="#f8fbf8"/>
  <text x="50" y="54" font-family="Arial, sans-serif" font-size="30" font-weight="700" fill="#14351f">SkinShelf Sprint 1 Technical Architecture</text>
  <text x="50" y="84" font-family="Arial, sans-serif" font-size="15" fill="#51685a">Current mobile architecture, open product data lookup, and Sprint 2 integration targets</text>

  <defs>
    <marker id="arrow" markerWidth="10" markerHeight="10" refX="8" refY="3" orient="auto" markerUnits="strokeWidth">
      <path d="M0,0 L0,6 L9,3 z" fill="#2f4d39"/>
    </marker>
    <style>
      text { font-family: Arial, Helvetica, sans-serif; }
      .band { fill: #edf6ef; stroke: #c2dac7; stroke-width: 1.5; }
      .external { fill: #fffaf0; stroke: #e4c06d; stroke-width: 1.5; }
      .box { fill: #ffffff; stroke: #8fbc97; stroke-width: 2; }
      .planned { fill: #fffaf0; stroke: #d8a83f; stroke-width: 2; stroke-dasharray: 8 5; }
      .ai { fill: #f4efff; stroke: #9b72cf; stroke-width: 2; }
      .data { fill: #eef6ff; stroke: #6a9ecf; stroke-width: 2; }
      .title { font-weight: 700; font-size: 17px; fill: #173820; }
      .text { font-size: 14px; fill: #34483b; }
      .small { font-size: 12px; fill: #5c6f62; }
      .arrow { stroke: #2f4d39; stroke-width: 2.2; fill: none; marker-end: url(#arrow); }
    </style>
  </defs>

  <rect x="50" y="120" width="1100" height="360" rx="28" class="band"/>
  <text x="82" y="158" class="title">Mobile App - React Native / Expo / TypeScript</text>

  <rect x="90" y="205" width="245" height="125" rx="16" class="box"/>
  <text x="116" y="238" class="title">Navigation Layer</text>
  <text x="116" y="268" class="text">RootNavigator</text>
  <text x="116" y="292" class="text">Native Stack</text>
  <text x="116" y="316" class="text">Bottom Tabs</text>

  <rect x="390" y="180" width="320" height="175" rx="16" class="box"/>
  <text x="416" y="213" class="title">Screen Layer</text>
  <text x="416" y="243" class="text">Login / SignIn / SignUp</text>
  <text x="416" y="267" class="text">Onboarding / Shelly</text>
  <text x="416" y="291" class="text">Home / Routine / Profile</text>
  <text x="416" y="315" class="text">Scanner / ProductReview</text>
  <text x="416" y="339" class="text">ProductDetail</text>

  <rect x="785" y="205" width="300" height="125" rx="16" class="box"/>
  <text x="812" y="238" class="title">State Layer</text>
  <text x="812" y="268" class="text">UserContext</text>
  <text x="812" y="292" class="text">ProductContext</text>
  <text x="812" y="316" class="text">Typed shared models</text>

  <rect x="390" y="380" width="320" height="75" rx="16" class="box"/>
  <text x="416" y="411" class="title">Service Layer</text>
  <text x="416" y="438" class="text">productService / routinePlanner / shellyInsights</text>

  <rect x="50" y="520" width="1100" height="250" rx="28" class="external"/>
  <text x="82" y="558" class="title">External Data and Sprint 2 Integration Targets</text>

  <rect x="90" y="595" width="235" height="115" rx="16" class="planned"/>
  <text x="116" y="628" class="title">Backend API</text>
  <text x="116" y="658" class="text">Java / Spring target</text>
  <text x="116" y="682" class="text">Auth and product endpoints</text>
  <text x="116" y="704" class="small">Sprint 2 scope</text>

  <rect x="370" y="595" width="250" height="115" rx="16" class="data"/>
  <text x="396" y="628" class="title">Open Beauty Facts</text>
  <text x="396" y="658" class="text">Barcode product lookup</text>
  <text x="396" y="682" class="text">Brand, name, ingredients</text>
  <text x="396" y="704" class="small">Open cosmetics data source</text>

  <rect x="665" y="595" width="240" height="115" rx="16" class="ai"/>
  <text x="691" y="628" class="title">Gemini AI Layer</text>
  <text x="691" y="658" class="text">Ingredient analysis</text>
  <text x="691" y="682" class="text">Compatibility + routine agents</text>
  <text x="691" y="704" class="small">Sprint 2 scope</text>

  <rect x="950" y="595" width="180" height="115" rx="16" class="planned"/>
  <text x="976" y="628" class="title">Database</text>
  <text x="976" y="658" class="text">User profile</text>
  <text x="976" y="682" class="text">Product closet</text>
  <text x="976" y="704" class="small">Analysis history</text>

  <path d="M335 268 H390" class="arrow"/>
  <path d="M710 268 H785" class="arrow"/>
  <path d="M550 355 V380" class="arrow"/>
  <path d="M550 455 V500 H72 V653 H90" class="arrow"/>
  <path d="M325 653 H370" class="arrow"/>
  <path d="M620 653 H665" class="arrow"/>
  <path d="M905 653 H950" class="arrow"/>

  <g>
    <rect x="82" y="808" width="18" height="18" fill="#ffffff" stroke="#8fbc97" stroke-width="2" rx="4"/>
    <text x="110" y="823" class="small">Implemented in Sprint 1</text>
    <rect x="262" y="808" width="18" height="18" fill="#fffaf0" stroke="#d8a83f" stroke-width="2" stroke-dasharray="5 3" rx="4"/>
    <text x="290" y="823" class="small">Planned integration</text>
    <rect x="432" y="808" width="18" height="18" fill="#eef6ff" stroke="#6a9ecf" stroke-width="2" rx="4"/>
    <text x="460" y="823" class="small">Open product data source</text>
    <rect x="650" y="808" width="18" height="18" fill="#f4efff" stroke="#9b72cf" stroke-width="2" rx="4"/>
    <text x="678" y="823" class="small">AI scope</text>
  </g>
</svg>
